<mxfile host="app.diagrams.net" agent="Mozilla/5.0 (Windows NT 10.0; Win64; x64) AppleWebKit/537.36 (KHTML, like Gecko) Chrome/133.0.0.0 Safari/537.36" version="26.0.13">
  <diagram name="Ginásio" id="sqR77hvDsRcVO-9Wcf4h">
    <mxGraphModel dx="1050" dy="557" grid="1" gridSize="10" guides="1" tooltips="1" connect="1" arrows="1" fold="1" page="1" pageScale="1" pageWidth="827" pageHeight="1169" math="0" shadow="0">
      <root>
        <mxCell id="0" />
        <mxCell id="1" parent="0" />
        <mxCell id="bDyWpsSk06RKxmON--17-1" style="edgeStyle=orthogonalEdgeStyle;rounded=0;orthogonalLoop=1;jettySize=auto;html=1;entryX=0;entryY=0.5;entryDx=0;entryDy=0;" edge="1" parent="1" source="bDyWpsSk06RKxmON--17-2" target="bDyWpsSk06RKxmON--17-5">
          <mxGeometry relative="1" as="geometry" />
        </mxCell>
        <mxCell id="bDyWpsSk06RKxmON--17-2" value="Funcionário" style="shape=umlActor;verticalLabelPosition=bottom;verticalAlign=top;html=1;" vertex="1" parent="1">
          <mxGeometry x="130" y="125" width="30" height="60" as="geometry" />
        </mxCell>
        <mxCell id="bDyWpsSk06RKxmON--17-3" style="edgeStyle=orthogonalEdgeStyle;rounded=0;orthogonalLoop=1;jettySize=auto;html=1;exitX=1;exitY=0.5;exitDx=0;exitDy=0;" edge="1" parent="1" source="bDyWpsSk06RKxmON--17-5" target="bDyWpsSk06RKxmON--17-8">
          <mxGeometry relative="1" as="geometry" />
        </mxCell>
        <mxCell id="bDyWpsSk06RKxmON--17-4" value="include" style="edgeLabel;html=1;align=center;verticalAlign=middle;resizable=0;points=[];" vertex="1" connectable="0" parent="bDyWpsSk06RKxmON--17-3">
          <mxGeometry x="-0.08" y="-4" relative="1" as="geometry">
            <mxPoint as="offset" />
          </mxGeometry>
        </mxCell>
        <mxCell id="bDyWpsSk06RKxmON--17-5" value="Inscrever sócio" style="ellipse;whiteSpace=wrap;html=1;" vertex="1" parent="1">
          <mxGeometry x="260" y="120" width="140" height="70" as="geometry" />
        </mxCell>
        <mxCell id="bDyWpsSk06RKxmON--17-6" style="edgeStyle=orthogonalEdgeStyle;rounded=0;orthogonalLoop=1;jettySize=auto;html=1;entryX=0.5;entryY=0;entryDx=0;entryDy=0;" edge="1" parent="1" source="bDyWpsSk06RKxmON--17-8" target="bDyWpsSk06RKxmON--17-11">
          <mxGeometry relative="1" as="geometry" />
        </mxCell>
        <mxCell id="bDyWpsSk06RKxmON--17-7" value="extend" style="edgeLabel;html=1;align=center;verticalAlign=middle;resizable=0;points=[];" vertex="1" connectable="0" parent="bDyWpsSk06RKxmON--17-6">
          <mxGeometry x="-0.0308" y="1" relative="1" as="geometry">
            <mxPoint as="offset" />
          </mxGeometry>
        </mxCell>
        <mxCell id="bDyWpsSk06RKxmON--17-8" value="Criar cartão de sócio" style="ellipse;whiteSpace=wrap;html=1;" vertex="1" parent="1">
          <mxGeometry x="510" y="120" width="140" height="70" as="geometry" />
        </mxCell>
        <mxCell id="bDyWpsSk06RKxmON--17-9" style="edgeStyle=orthogonalEdgeStyle;rounded=0;orthogonalLoop=1;jettySize=auto;html=1;entryX=0;entryY=0.5;entryDx=0;entryDy=0;" edge="1" parent="1" source="bDyWpsSk06RKxmON--17-10" target="bDyWpsSk06RKxmON--17-12">
          <mxGeometry relative="1" as="geometry" />
        </mxCell>
        <mxCell id="bDyWpsSk06RKxmON--17-10" value="Diretor Financeiro" style="shape=umlActor;verticalLabelPosition=bottom;verticalAlign=top;html=1;" vertex="1" parent="1">
          <mxGeometry x="140" y="320" width="30" height="60" as="geometry" />
        </mxCell>
        <mxCell id="bDyWpsSk06RKxmON--17-11" value="Criar novo cartão" style="ellipse;whiteSpace=wrap;html=1;" vertex="1" parent="1">
          <mxGeometry x="440" y="245" width="140" height="70" as="geometry" />
        </mxCell>
        <mxCell id="bDyWpsSk06RKxmON--17-12" value="Alterar anuidade" style="ellipse;whiteSpace=wrap;html=1;" vertex="1" parent="1">
          <mxGeometry x="290" y="315" width="140" height="70" as="geometry" />
        </mxCell>
        <mxCell id="bDyWpsSk06RKxmON--17-13" style="edgeStyle=orthogonalEdgeStyle;rounded=0;orthogonalLoop=1;jettySize=auto;html=1;entryX=0;entryY=0.5;entryDx=0;entryDy=0;" edge="1" parent="1" source="bDyWpsSk06RKxmON--17-14" target="bDyWpsSk06RKxmON--17-17">
          <mxGeometry relative="1" as="geometry" />
        </mxCell>
        <mxCell id="bDyWpsSk06RKxmON--17-14" value="Sistema" style="shape=umlActor;verticalLabelPosition=bottom;verticalAlign=top;html=1;" vertex="1" parent="1">
          <mxGeometry x="130" y="470" width="30" height="60" as="geometry" />
        </mxCell>
        <mxCell id="bDyWpsSk06RKxmON--17-17" value="Verificar datas de validade" style="ellipse;whiteSpace=wrap;html=1;" vertex="1" parent="1">
          <mxGeometry x="274" y="465" width="140" height="70" as="geometry" />
        </mxCell>
        <mxCell id="bDyWpsSk06RKxmON--17-18" value="Sócio" style="shape=umlActor;verticalLabelPosition=bottom;verticalAlign=top;html=1;" vertex="1" parent="1">
          <mxGeometry x="950" y="125" width="30" height="60" as="geometry" />
        </mxCell>
        <mxCell id="bDyWpsSk06RKxmON--17-20" value="Entrar nas salas" style="ellipse;whiteSpace=wrap;html=1;" vertex="1" parent="1">
          <mxGeometry x="720" y="100" width="140" height="70" as="geometry" />
        </mxCell>
        <mxCell id="bDyWpsSk06RKxmON--17-21" value="" style="endArrow=none;html=1;rounded=0;exitX=1;exitY=1;exitDx=0;exitDy=0;exitPerimeter=0;entryX=0;entryY=0.5;entryDx=0;entryDy=0;" edge="1" parent="1" source="bDyWpsSk06RKxmON--17-2" target="bDyWpsSk06RKxmON--17-11">
          <mxGeometry width="50" height="50" relative="1" as="geometry">
            <mxPoint x="490" y="320" as="sourcePoint" />
            <mxPoint x="540" y="270" as="targetPoint" />
          </mxGeometry>
        </mxCell>
        <mxCell id="bDyWpsSk06RKxmON--17-22" value="" style="endArrow=none;html=1;rounded=0;entryX=0;entryY=0.3333333333333333;entryDx=0;entryDy=0;entryPerimeter=0;exitX=1;exitY=0.5;exitDx=0;exitDy=0;" edge="1" parent="1" source="bDyWpsSk06RKxmON--17-20" target="bDyWpsSk06RKxmON--17-18">
          <mxGeometry width="50" height="50" relative="1" as="geometry">
            <mxPoint x="490" y="320" as="sourcePoint" />
            <mxPoint x="540" y="270" as="targetPoint" />
          </mxGeometry>
        </mxCell>
        <mxCell id="bDyWpsSk06RKxmON--17-23" value="" style="endArrow=none;html=1;rounded=0;entryX=1;entryY=1;entryDx=0;entryDy=0;" edge="1" parent="1" source="bDyWpsSk06RKxmON--17-26" target="bDyWpsSk06RKxmON--17-20">
          <mxGeometry width="50" height="50" relative="1" as="geometry">
            <mxPoint x="840" y="240" as="sourcePoint" />
            <mxPoint x="540" y="270" as="targetPoint" />
          </mxGeometry>
        </mxCell>
        <mxCell id="bDyWpsSk06RKxmON--17-24" value="" style="endArrow=none;html=1;rounded=0;entryX=0;entryY=1;entryDx=0;entryDy=0;exitX=0.5;exitY=0;exitDx=0;exitDy=0;" edge="1" parent="1" source="bDyWpsSk06RKxmON--17-25" target="bDyWpsSk06RKxmON--17-20">
          <mxGeometry width="50" height="50" relative="1" as="geometry">
            <mxPoint x="741" y="240" as="sourcePoint" />
            <mxPoint x="540" y="270" as="targetPoint" />
          </mxGeometry>
        </mxCell>
        <mxCell id="bDyWpsSk06RKxmON--17-25" value="Validar cartão" style="ellipse;whiteSpace=wrap;html=1;" vertex="1" parent="1">
          <mxGeometry x="650" y="185" width="140" height="70" as="geometry" />
        </mxCell>
        <mxCell id="bDyWpsSk06RKxmON--17-27" value="" style="endArrow=none;html=1;rounded=0;entryX=1;entryY=1;entryDx=0;entryDy=0;" edge="1" parent="1" target="bDyWpsSk06RKxmON--17-26">
          <mxGeometry width="50" height="50" relative="1" as="geometry">
            <mxPoint x="840" y="240" as="sourcePoint" />
            <mxPoint x="839" y="160" as="targetPoint" />
          </mxGeometry>
        </mxCell>
        <mxCell id="bDyWpsSk06RKxmON--17-26" value="Nº sócio" style="ellipse;whiteSpace=wrap;html=1;" vertex="1" parent="1">
          <mxGeometry x="800" y="185" width="140" height="70" as="geometry" />
        </mxCell>
        <mxCell id="bDyWpsSk06RKxmON--17-28" value="Pagar anuidade" style="ellipse;whiteSpace=wrap;html=1;" vertex="1" parent="1">
          <mxGeometry x="760" y="300" width="140" height="70" as="geometry" />
        </mxCell>
        <mxCell id="bDyWpsSk06RKxmON--17-29" value="" style="endArrow=none;html=1;rounded=0;exitX=1;exitY=1;exitDx=0;exitDy=0;exitPerimeter=0;entryX=1;entryY=0.5;entryDx=0;entryDy=0;" edge="1" parent="1" source="bDyWpsSk06RKxmON--17-18" target="bDyWpsSk06RKxmON--17-28">
          <mxGeometry width="50" height="50" relative="1" as="geometry">
            <mxPoint x="170" y="195" as="sourcePoint" />
            <mxPoint x="450" y="290" as="targetPoint" />
          </mxGeometry>
        </mxCell>
        <mxCell id="bDyWpsSk06RKxmON--17-30" value="" style="endArrow=none;html=1;rounded=0;exitX=1;exitY=0.5;exitDx=0;exitDy=0;entryX=0;entryY=0.5;entryDx=0;entryDy=0;" edge="1" parent="1" source="bDyWpsSk06RKxmON--17-12" target="bDyWpsSk06RKxmON--17-28">
          <mxGeometry width="50" height="50" relative="1" as="geometry">
            <mxPoint x="170" y="195" as="sourcePoint" />
            <mxPoint x="450" y="290" as="targetPoint" />
          </mxGeometry>
        </mxCell>
        <mxCell id="bDyWpsSk06RKxmON--17-35" value="extend" style="edgeLabel;html=1;align=center;verticalAlign=middle;resizable=0;points=[];" vertex="1" connectable="0" parent="bDyWpsSk06RKxmON--17-30">
          <mxGeometry x="0.0006" y="2" relative="1" as="geometry">
            <mxPoint as="offset" />
          </mxGeometry>
        </mxCell>
        <mxCell id="bDyWpsSk06RKxmON--17-31" value="Atualizar atestado médico" style="ellipse;whiteSpace=wrap;html=1;" vertex="1" parent="1">
          <mxGeometry x="970" y="280" width="140" height="70" as="geometry" />
        </mxCell>
        <mxCell id="bDyWpsSk06RKxmON--17-32" value="Atestado médico" style="ellipse;whiteSpace=wrap;html=1;" vertex="1" parent="1">
          <mxGeometry x="460" y="420" width="140" height="70" as="geometry" />
        </mxCell>
        <mxCell id="bDyWpsSk06RKxmON--17-33" value="Anuidade" style="ellipse;whiteSpace=wrap;html=1;" vertex="1" parent="1">
          <mxGeometry x="460" y="515" width="140" height="70" as="geometry" />
        </mxCell>
        <mxCell id="bDyWpsSk06RKxmON--17-34" value="Notificação" style="ellipse;whiteSpace=wrap;html=1;" vertex="1" parent="1">
          <mxGeometry x="460" y="620" width="140" height="70" as="geometry" />
        </mxCell>
      </root>
    </mxGraphModel>
  </diagram>
</mxfile>
